<svg xmlns="http://www.w3.org/2000/svg" width="1440" height="1440" viewBox="0 0 1440 1440">
  <defs>
    <style>
      .cls-1 {
        fill: #ff51af;
        fill-rule: evenodd;
      }
    </style>
  </defs>
  <path id="Color_Fill_7" data-name="Color Fill 7" class="cls-1" d="M457.289,928.863C369.312,985.81,263.32,1128.82,605.6,1291.4,369.833,1174.21,447.791,1072.61,476,1030c26.915-40.659,202.676-140.012,372.365-267.568C1203.76,495.279,1289.92,287.335,1242.6,154,1206.68,52.807,1100.82,22.772,974,8c206.44,22.071,220.43,129.211,234.14,195.662,19.75,95.736-97.49,287.61-375.6,492.215C573.8,886.241,552.284,867.374,457.289,928.863ZM704,667c190.3-119.576,336.35-286.71,363-387,24.07-90.587,2.27-115.658-55.43-142.376-58.738-27.2-62.186-26.583-3.57,16.376,63.1,46.245,6.8,159.11-136,293C741.912,568.972,610.959,651.372,463,719,317.468,785.519,10.135,808.95,16.832,617.288-9.5,730.015,10.866,791.141,60,837,211.373,964.131,426.727,841.226,704,667Z"/>
  <path id="Color_Fill_16" data-name="Color Fill 16" class="cls-1" d="M1019,217C1008.54,62.388,731,102,731,102s96.054-19,183-4c165.18,28.489,209.42,107.462,129.17,256.188C956.374,494.881,746.6,646.864,612,725c-97.375,56.526-146.339,53.442-154,49-2.607-1.512-84.762-17.288-5-50C642.657,642.354,1029.8,376.6,1019,217ZM735,767c37.832-27.075,70.48-51.125,107-78,50.6-37.239,113.626-9.605,72,23-90.767,71.1-115.537,87.851-166,122C697.7,868.041,685.918,802.127,735,767Zm856-164,77,385"/>
</svg>
